<svg xmlns="http://www.w3.org/2000/svg" enable-background="new 0 0 100 100" viewBox="0 0 100 100"><symbol id="a" viewBox="0 -24 360 24"><rect width="360" height="24" y="-24" fill="#010101" fill-opacity="0"/><rect width="40" height="16" x="312" y="-21" fill="none" opacity=".9"/><path fill="#fff" d="M266-19l8.8,10.9C274.5-7.8,271.1-5,266-5s-8.5-2.8-8.8-3.1L266-19L266-19L266-19L266-19L266-19z" opacity=".9"/><rect width="16" height="16" x="258" y="-20" fill="none"/><polygon fill="#fff" points="277 -19 291 -19 291 -5" opacity=".9"/><rect width="16" height="16" x="276" y="-20" fill="none"/><rect width="16" height="16" x="296" y="-20" fill="none"/><path fill="#fff" d="M306-6v1h-3v-1h-3v-13h9v13H306z" opacity=".9"/></symbol><rect width="6" height="23" x="61.3" y="67.1" fill="#ffedce"/><path fill="#8e7f8b" d="M65.3,83.1h-2v-2c0-0.6,0.4-1,1-1l0,0c0.6,0,1,0.4,1,1V83.1z"/><rect width="30" height="12" x="35.3" y="55.1" fill="#ffe9cf"/><path fill="#8e7f8b" d="M43.3 67.6c0 0 0-3.8 0-5.5 0-2.3 2.1-3 2.1-3s1.9.7 1.9 3c0 1.7 0 5.5 0 5.5M37.3 67.6c0 0 0-3.8 0-5.5 0-2.3 2.1-3 2.1-3s1.9.7 1.9 3c0 1.7 0 5.5 0 5.5"/><path fill="#726571" d="M39.3 59.1c0 0-2.1.8-2.1 3 0 .5 0 1.2 0 2 0-2.3 2.1-3 2.1-3s1.9.7 1.9 3c0-.8 0-1.5 0-2C41.3 59.8 39.3 59.1 39.3 59.1zM45.3 59.1c0 0-2.1.8-2.1 3 0 .5 0 1.2 0 2 0-2.3 2.1-3 2.1-3s1.9.7 1.9 3c0-.8 0-1.5 0-2C47.3 59.8 45.3 59.1 45.3 59.1z"/><rect width="6" height="23" x="67.3" y="67.1" fill="#ffe9cf"/><rect width="6" height="23" x="27.3" y="67.1" fill="#ffe9cf"/><rect width="2" height="23" x="71.3" y="67.1" fill="#fff"/><rect width="2" height="23" x="31.3" y="67.1" fill="#fff"/><path fill="#ffe9cf" d="M39.3,67.1v23h19l-16,0V79.7c0-3.2,1.8-6.1,4.9-7.9l3.1-1.7l3.1,1.7c3.1,1.7,4.9,4.7,4.9,7.9v10.4h3v-23    H39.3z"/><rect width="2" height="23" x="39.3" y="67.1" fill="#fdd2af"/><rect width="2" height="23" x="59.3" y="67.1" fill="#fdd2af"/><rect width="4" height="4.5" x="68.3" y="38.6" fill="#ffe9cf"/><rect width="4" height="4.5" x="28.3" y="38.6" fill="#ffe9cf"/><rect width="6" height="3" x="67.3" y="35.6" fill="#ffe9cf" transform="rotate(-180 70.272 37.083)"/><rect width="6" height="3" x="27.3" y="35.6" fill="#ffedce" transform="rotate(-180 30.272 37.083)"/><path fill="#ffe9cf" d="M28.3 35.4v-3.6c0-.9.5-1.8 1.2-2.2l.8-.5.8.5c.8.5 1.2 1.3 1.2 2.2v3.6M68.3 35.4v-3.6c0-.9.5-1.8 1.2-2.2l.8-.5.8.5c.8.5 1.2 1.3 1.2 2.2v3.6"/><rect width="4" height="2" x="28.3" y="38.6" fill="#fdd2af"/><rect width="4" height="2" x="68.3" y="38.6" fill="#fdd2af"/><rect width="4" height="8" x="68.3" y="47.1" fill="#ffe9cf"/><rect width="10" height="12" x="65.3" y="55.1" fill="#ffedce"/><rect width="2" height="12" x="65.3" y="55.1" fill="#fdd2af"/><rect width="6" height="23" x="33.3" y="67.1" fill="#ffe9cf"/><circle cx="50.3" cy="61.1" r="1" fill="#ffd79e"/><rect width="34" height="2" x="33.3" y="67.1" fill="#fdd2af"/><rect width="6" height="2" x="27.3" y="67.1" fill="#fdd2af"/><rect width="2" height="23" x="61.3" y="67.1" fill="#fdd2af"/><rect width="2" height="23" x="67.3" y="67.1" fill="#fdd2af"/><rect width="2" height="23" x="33.3" y="67.1" fill="#fdd2af"/><rect width="2" height="23" x="37.3" y="67.1" fill="#fff"/><rect width="2" height="23" x="65.3" y="67.1" fill="#fff"/><rect width="2" height="23" x="27.3" y="67.1" fill="#fdd2af"/><circle cx="42.3" cy="71.1" r="1" fill="#ffd79e"/><circle cx="58.3" cy="71.1" r="1" fill="#ffd79e"/><rect width="10" height="12" x="25.3" y="55.1" fill="#ffe9cf"/><rect width="6" height="2" x="67.3" y="67.1" fill="#fdd2af"/><rect width="36" height="4" x="32.3" y="51" fill="#ffe9cf"/><rect width="2" height="4" x="32.3" y="51" fill="#fdd2af"/><rect width="2" height="4" x="66.3" y="51" fill="#fdd2af"/><rect width="2" height="12" x="35.3" y="55.1" fill="#fdd2af"/><rect width="2" height="12" x="25.3" y="55.1" fill="#fdd2af"/><path fill="#8e7f8b" d="M53.3 67.6c0 0 0-3.8 0-5.5 0-2.3 2.1-3 2.1-3s1.9.7 1.9 3c0 1.7 0 5.5 0 5.5M59.3 67.6c0 0 0-3.8 0-5.5 0-2.3 2.1-3 2.1-3s1.9.7 1.9 3c0 1.7 0 5.5 0 5.5M37.3 73.1h-2v-2c0-.6.4-1 1-1l0 0c.6 0 1 .4 1 1V73.1z"/><path fill="#726571" d="M36.3,70.1c-0.6,0-1,0.4-1,1v1.5c0-0.6,0.4-1,1-1s1,0.4,1,1v-1.5C37.3,70.5,36.8,70.1,36.3,70.1z"/><path fill="#8e7f8b" d="M37.3,78.1h-2v-2c0-0.6,0.4-1,1-1l0,0c0.6,0,1,0.4,1,1V78.1z"/><path fill="#726571" d="M36.3,75.1c-0.6,0-1,0.4-1,1v1.5c0-0.6,0.4-1,1-1s1,0.4,1,1v-1.5C37.3,75.5,36.8,75.1,36.3,75.1z"/><path fill="#8e7f8b" d="M37.3 83.1h-2v-2c0-.6.4-1 1-1l0 0c.6 0 1 .4 1 1V83.1zM37.3 88.1h-2v-2c0-.6.4-1 1-1l0 0c.6 0 1 .4 1 1V88.1zM65.3 73.1h-2v-2c0-.6.4-1 1-1l0 0c.6 0 1 .4 1 1V73.1zM65.3 78.1h-2v-2c0-.6.4-1 1-1l0 0c.6 0 1 .4 1 1V78.1zM65.3 88.1h-2v-2c0-.6.4-1 1-1l0 0c.6 0 1 .4 1 1V88.1zM33.3 65.1h-2v-2c0-.6.4-1 1-1l0 0c.6 0 1 .4 1 1V65.1zM33.3 60.1h-2v-2c0-.6.4-1 1-1l0 0c.6 0 1 .4 1 1V60.1zM69.3 65.1h-2v-2c0-.6.4-1 1-1l0 0c.6 0 1 .4 1 1V65.1zM69.3 60.1h-2v-2c0-.6.4-1 1-1l0 0c.6 0 1 .4 1 1V60.1zM73.3 65.1h-2v-2c0-.6.4-1 1-1l0 0c.6 0 1 .4 1 1V65.1zM73.3 60.1h-2v-2c0-.6.4-1 1-1l0 0c.6 0 1 .4 1 1V60.1z"/><path fill="#e3f4fd" d="M37.3 55.1h-2v-1c0-.6.4-1 1-1l0 0c.6 0 1 .4 1 1V55.1zM41.3 55.1h-2v-1c0-.6.4-1 1-1l0 0c.6 0 1 .4 1 1V55.1zM45.3 55.1h-2v-1c0-.6.4-1 1-1l0 0c.6 0 1 .4 1 1V55.1zM49.3 55.1h-2v-1c0-.6.4-1 1-1l0 0c.6 0 1 .4 1 1V55.1zM53.3 55.1h-2v-1c0-.6.4-1 1-1l0 0c.6 0 1 .4 1 1V55.1zM57.3 55.1h-2v-1c0-.6.4-1 1-1l0 0c.6 0 1 .4 1 1V55.1zM61.3 55.1h-2v-1c0-.6.4-1 1-1l0 0c.6 0 1 .4 1 1V55.1zM65.3 55.1h-2v-1c0-.6.4-1 1-1l0 0c.6 0 1 .4 1 1V55.1z"/><path fill="#8e7f8b" d="M29.3 65.1h-2v-2c0-.6.4-1 1-1h0c.6 0 1 .4 1 1V65.1zM29.3 60.1h-2v-2c0-.6.4-1 1-1h0c.6 0 1 .4 1 1V60.1z"/><rect width="36" height="2" x="32.3" y="49" fill="#ffe9cf"/><rect width="4" height="8" x="28.3" y="47.1" fill="#ffe9cf"/><rect width="1.5" height="3.1" x="27.8" y="35.5" fill="#fdd2af"/><rect width="1.5" height="3.1" x="67.8" y="35.5" fill="#fdd2af"/><rect width="8" height="4" x="26.3" y="43.1" fill="#ffe9cf" transform="rotate(-180 30.272 45.083)"/><rect width="4" height="2" x="28.3" y="47.1" fill="#fdd2af"/><rect width="4" height="2" x="68.3" y="47.1" fill="#fdd2af"/><rect width="8" height="4" x="66.3" y="43.1" fill="#ffe9cf" transform="rotate(-180 70.272 45.083)"/><rect width="1.5" height="4.5" x="70.8" y="38.6" fill="#fff"/><rect width="1.5" height="4.5" x="30.8" y="38.6" fill="#fff"/><rect width="1.5" height="8" x="70.8" y="47.1" fill="#fff"/><rect width="2" height="12" x="63.3" y="55.1" fill="#fff"/><rect width="2" height="12" x="73.3" y="55.1" fill="#fff"/><rect width="30" height="2" x="35.3" y="55.1" fill="#fff"/><rect width="10" height="2" x="25.3" y="55.1" fill="#fff"/><rect width="10" height="2" x="65.3" y="55.1" fill="#fff"/><rect width="2" height="12" x="33.3" y="55.1" fill="#fff"/><rect width="1.5" height="8" x="30.8" y="47.1" fill="#fff"/><rect width="1.5" height="3.5" x="70.8" y="32.1" fill="#fff"/><rect width="1.5" height="3.5" x="30.8" y="32.1" fill="#fff"/><rect width="1.5" height="3.1" x="31.3" y="35.5" fill="#fff"/><rect width="1.5" height="3.1" x="71.3" y="35.5" fill="#fff"/><rect width="36" height="2" x="32.3" y="50.5" fill="#fff"/><rect width="2" height="4" x="32.3" y="43.1" fill="#fff"/><rect width="2" height="4" x="72.3" y="43.1" fill="#fff"/><rect width="2" height="4" x="26.3" y="43.1" fill="#fdd2af"/><rect width="2" height="4" x="66.3" y="43.1" fill="#fdd2af"/><path fill="#594454" d="M77.3,90.7h-54c-0.3,0-0.5-0.2-0.5-0.5s0.2-0.5,0.5-0.5h54c0.3,0,0.5,0.2,0.5,0.5S77.5,90.7,77.3,90.7z"/><path fill="#594454" d="M58.3 90.6c-.3 0-.5-.2-.5-.5V79.7c0-3-1.7-5.8-4.7-7.4l-2.8-1.6-2.9 1.6c-2.9 1.6-4.6 4.4-4.6 7.4V90c0 .3-.2.5-.5.5s-.5-.2-.5-.5V79.7c0-3.4 1.9-6.5 5.2-8.3l3.1-1.7c.2-.1.3-.1.5 0l3.1 1.7c3.3 1.8 5.2 4.9 5.2 8.3v10.4C58.8 90.4 58.5 90.6 58.3 90.6zM41.3 68.1c-.3 0-.5-.2-.5-.5v-5.5c0-1.5-1-2.2-1.5-2.5-.4.2-1.5.9-1.5 2.5v5.5c0 .3-.2.5-.5.5s-.5-.2-.5-.5v-5.5c0-2.6 2.3-3.4 2.4-3.5.1 0 .2 0 .3 0 .1 0 2.3.9 2.3 3.5v5.5C41.8 67.9 41.5 68.1 41.3 68.1zM47.3 68.1c-.3 0-.5-.2-.5-.5v-5.5c0-1.5-1-2.2-1.5-2.5-.4.2-1.5.9-1.5 2.5v5.5c0 .3-.2.5-.5.5s-.5-.2-.5-.5v-5.5c0-2.6 2.3-3.4 2.4-3.5.1 0 .2 0 .3 0 .1 0 2.3.9 2.3 3.5v5.5C47.8 67.9 47.5 68.1 47.3 68.1z"/><path fill="#594454" d="M61.3,90.6h-22c-0.3,0-0.5-0.2-0.5-0.5v-23c0-0.3,0.2-0.5,0.5-0.5h22c0.3,0,0.5,0.2,0.5,0.5v23    C61.8,90.4,61.5,90.6,61.3,90.6z M39.8,89.6h21v-22h-21V89.6z"/><path fill="#594454" d="M39.3,90.6h-6c-0.3,0-0.5-0.2-0.5-0.5v-23c0-0.3,0.2-0.5,0.5-0.5h6c0.3,0,0.5,0.2,0.5,0.5v23    C39.8,90.4,39.5,90.6,39.3,90.6z M33.8,89.6h5v-22h-5V89.6z"/><path fill="#594454" d="M33.3 90.6h-6c-.3 0-.5-.2-.5-.5v-23c0-.3.2-.5.5-.5h6c.3 0 .5.2.5.5v23C33.8 90.4 33.5 90.6 33.3 90.6zM27.8 89.6h5v-22h-5V89.6zM32.3 55.6h-4c-.3 0-.5-.2-.5-.5v-8c0-.3.2-.5.5-.5h4c.3 0 .5.2.5.5v8C32.8 55.4 32.5 55.6 32.3 55.6zM28.8 54.6h3v-7h-3V54.6zM32.3 43.6h-4c-.3 0-.5-.2-.5-.5v-4.5c0-.3.2-.5.5-.5h4c.3 0 .5.2.5.5v4.5C32.8 43.4 32.5 43.6 32.3 43.6zM28.8 42.6h3v-3.5h-3V42.6zM72.3 55.6h-4c-.3 0-.5-.2-.5-.5v-8c0-.3.2-.5.5-.5h4c.3 0 .5.2.5.5v8C72.8 55.4 72.5 55.6 72.3 55.6zM68.8 54.6h3v-7h-3V54.6z"/><path fill="#594454" d="M35.3 67.6h-10c-.3 0-.5-.2-.5-.5v-12c0-.3.2-.5.5-.5h10c.3 0 .5.2.5.5v12C35.8 67.4 35.5 67.6 35.3 67.6zM25.8 66.6h9v-11h-9V66.6zM34.3 47.6h-8c-.3 0-.5-.2-.5-.5v-4c0-.3.2-.5.5-.5h8c.3 0 .5.2.5.5v4C34.8 47.4 34.5 47.6 34.3 47.6zM26.8 46.6h7v-3h-7V46.6zM33.3 39.1h-6c-.3 0-.5-.2-.5-.5v-3c0-.3.2-.5.5-.5h6c.3 0 .5.2.5.5v3C33.8 38.9 33.5 39.1 33.3 39.1zM27.8 38.1h5v-2h-5V38.1z"/><path fill="#594454" d="M65.3,67.6h-30c-0.3,0-0.5-0.2-0.5-0.5v-12c0-0.3,0.2-0.5,0.5-0.5h30c0.3,0,0.5,0.2,0.5,0.5v12    C65.8,67.4,65.5,67.6,65.3,67.6z M35.8,66.6h29v-11h-29V66.6z"/><path fill="#594454" d="M68.3,55.6h-36c-0.3,0-0.5-0.2-0.5-0.5v-4c0-0.3,0.2-0.5,0.5-0.5h36c0.3,0,0.5,0.2,0.5,0.5v4    C68.8,55.4,68.5,55.6,68.3,55.6z M32.8,54.6h35v-3h-35V54.6z"/><path fill="#594454" d="M68.3 51.5h-36c-.3 0-.5-.2-.5-.5v-2c0-.3.2-.5.5-.5h36c.3 0 .5.2.5.5v2C68.8 51.3 68.5 51.5 68.3 51.5zM32.8 50.5h35v-1h-35V50.5zM37.3 73.6h-2c-.3 0-.5-.2-.5-.5v-2c0-.8.7-1.5 1.5-1.5s1.5.7 1.5 1.5v2C37.8 73.4 37.5 73.6 37.3 73.6zM35.8 72.6h1v-1.5c0-.3-.2-.5-.5-.5s-.5.2-.5.5V72.6zM37.3 78.6h-2c-.3 0-.5-.2-.5-.5v-2c0-.8.7-1.5 1.5-1.5s1.5.7 1.5 1.5v2C37.8 78.4 37.5 78.6 37.3 78.6zM35.8 77.6h1v-1.5c0-.3-.2-.5-.5-.5s-.5.2-.5.5V77.6zM37.3 83.6h-2c-.3 0-.5-.2-.5-.5v-2c0-.8.7-1.5 1.5-1.5s1.5.7 1.5 1.5v2C37.8 83.4 37.5 83.6 37.3 83.6zM35.8 82.6h1v-1.5c0-.3-.2-.5-.5-.5s-.5.2-.5.5V82.6zM37.3 88.6h-2c-.3 0-.5-.2-.5-.5v-2c0-.8.7-1.5 1.5-1.5s1.5.7 1.5 1.5v2C37.8 88.4 37.5 88.6 37.3 88.6zM35.8 87.6h1v-1.5c0-.3-.2-.5-.5-.5s-.5.2-.5.5V87.6zM65.3 78.6h-2c-.3 0-.5-.2-.5-.5v-2c0-.8.7-1.5 1.5-1.5.8 0 1.5.7 1.5 1.5v2C65.8 78.4 65.5 78.6 65.3 78.6zM63.8 77.6h1v-1.5c0-.3-.2-.5-.5-.5-.3 0-.5.2-.5.5V77.6zM65.3 88.6h-2c-.3 0-.5-.2-.5-.5v-2c0-.8.7-1.5 1.5-1.5.8 0 1.5.7 1.5 1.5v2C65.8 88.4 65.5 88.6 65.3 88.6zM63.8 87.6h1v-1.5c0-.3-.2-.5-.5-.5-.3 0-.5.2-.5.5V87.6z"/><path fill="#594454" d="M37.3 73.6h-2c-.3 0-.5-.2-.5-.5v-2c0-.8.7-1.5 1.5-1.5s1.5.7 1.5 1.5v2C37.8 73.4 37.5 73.6 37.3 73.6zM35.8 72.6h1v-1.5c0-.3-.2-.5-.5-.5s-.5.2-.5.5V72.6zM37.3 78.6h-2c-.3 0-.5-.2-.5-.5v-2c0-.8.7-1.5 1.5-1.5s1.5.7 1.5 1.5v2C37.8 78.4 37.5 78.6 37.3 78.6zM35.8 77.6h1v-1.5c0-.3-.2-.5-.5-.5s-.5.2-.5.5V77.6zM37.3 83.6h-2c-.3 0-.5-.2-.5-.5v-2c0-.8.7-1.5 1.5-1.5s1.5.7 1.5 1.5v2C37.8 83.4 37.5 83.6 37.3 83.6zM35.8 82.6h1v-1.5c0-.3-.2-.5-.5-.5s-.5.2-.5.5V82.6zM37.3 88.6h-2c-.3 0-.5-.2-.5-.5v-2c0-.8.7-1.5 1.5-1.5s1.5.7 1.5 1.5v2C37.8 88.4 37.5 88.6 37.3 88.6zM35.8 87.6h1v-1.5c0-.3-.2-.5-.5-.5s-.5.2-.5.5V87.6zM65.3 78.6h-2c-.3 0-.5-.2-.5-.5v-2c0-.8.7-1.5 1.5-1.5.8 0 1.5.7 1.5 1.5v2C65.8 78.4 65.5 78.6 65.3 78.6zM63.8 77.6h1v-1.5c0-.3-.2-.5-.5-.5-.3 0-.5.2-.5.5V77.6zM65.3 88.6h-2c-.3 0-.5-.2-.5-.5v-2c0-.8.7-1.5 1.5-1.5.8 0 1.5.7 1.5 1.5v2C65.8 88.4 65.5 88.6 65.3 88.6zM63.8 87.6h1v-1.5c0-.3-.2-.5-.5-.5-.3 0-.5.2-.5.5V87.6z"/><path fill="#726571" d="M32.3 62.1c-.6 0-1 .4-1 1v1c0-.6.4-1 1-1 .6 0 1 .4 1 1v-1C33.3 62.5 32.8 62.1 32.3 62.1zM68.3 62.1c-.6 0-1 .4-1 1v1c0-.6.4-1 1-1s1 .4 1 1v-1C69.3 62.5 68.8 62.1 68.3 62.1zM68.3 57.1c-.6 0-1 .4-1 1v1c0-.6.4-1 1-1s1 .4 1 1v-1C69.3 57.5 68.8 57.1 68.3 57.1zM72.3 62.1c-.6 0-1 .4-1 1v1c0-.6.4-1 1-1s1 .4 1 1v-1C73.3 62.5 72.8 62.1 72.3 62.1zM72.3 57.1c-.6 0-1 .4-1 1v1c0-.6.4-1 1-1s1 .4 1 1v-1C73.3 57.5 72.8 57.1 72.3 57.1zM28.3 62.1c-.6 0-1 .4-1 1v1c0-.6.4-1 1-1s1 .4 1 1v-1C29.3 62.5 28.8 62.1 28.3 62.1zM28.3 57.1c-.6 0-1 .4-1 1v1c0-.6.4-1 1-1s1 .4 1 1v-1C29.3 57.5 28.8 57.1 28.3 57.1zM32.3 57.1c-.6 0-1 .4-1 1v1c0-.6.4-1 1-1 .6 0 1 .4 1 1v-1C33.3 57.5 32.8 57.1 32.3 57.1z"/><path fill="#594454" d="M37.3 73.6h-2c-.3 0-.5-.2-.5-.5v-2c0-.8.7-1.5 1.5-1.5s1.5.7 1.5 1.5v2C37.8 73.4 37.5 73.6 37.3 73.6zM35.8 72.6h1v-1.5c0-.3-.2-.5-.5-.5s-.5.2-.5.5V72.6zM37.3 78.6h-2c-.3 0-.5-.2-.5-.5v-2c0-.8.7-1.5 1.5-1.5s1.5.7 1.5 1.5v2C37.8 78.4 37.5 78.6 37.3 78.6zM35.8 77.6h1v-1.5c0-.3-.2-.5-.5-.5s-.5.2-.5.5V77.6zM29.3 65.6h-2c-.3 0-.5-.2-.5-.5v-2c0-.8.7-1.5 1.5-1.5s1.5.7 1.5 1.5v2C29.8 65.4 29.5 65.6 29.3 65.6zM27.8 64.6h1v-1.5c0-.3-.2-.5-.5-.5s-.5.2-.5.5V64.6zM29.3 60.6h-2c-.3 0-.5-.2-.5-.5v-2c0-.8.7-1.5 1.5-1.5s1.5.7 1.5 1.5v2C29.8 60.4 29.5 60.6 29.3 60.6zM27.8 59.6h1v-1.5c0-.3-.2-.5-.5-.5s-.5.2-.5.5V59.6zM33.3 65.6h-2c-.3 0-.5-.2-.5-.5v-2c0-.8.7-1.5 1.5-1.5.8 0 1.5.7 1.5 1.5v2C33.8 65.4 33.5 65.6 33.3 65.6zM31.8 64.6h1v-1.5c0-.3-.2-.5-.5-.5-.3 0-.5.2-.5.5V64.6zM33.3 60.6h-2c-.3 0-.5-.2-.5-.5v-2c0-.8.7-1.5 1.5-1.5.8 0 1.5.7 1.5 1.5v2C33.8 60.4 33.5 60.6 33.3 60.6zM31.8 59.6h1v-1.5c0-.3-.2-.5-.5-.5-.3 0-.5.2-.5.5V59.6zM69.3 65.6h-2c-.3 0-.5-.2-.5-.5v-2c0-.8.7-1.5 1.5-1.5s1.5.7 1.5 1.5v2C69.8 65.4 69.5 65.6 69.3 65.6zM67.8 64.6h1v-1.5c0-.3-.2-.5-.5-.5s-.5.2-.5.5V64.6zM69.3 60.6h-2c-.3 0-.5-.2-.5-.5v-2c0-.8.7-1.5 1.5-1.5s1.5.7 1.5 1.5v2C69.8 60.4 69.5 60.6 69.3 60.6zM67.8 59.6h1v-1.5c0-.3-.2-.5-.5-.5s-.5.2-.5.5V59.6zM73.3 65.6h-2c-.3 0-.5-.2-.5-.5v-2c0-.8.7-1.5 1.5-1.5s1.5.7 1.5 1.5v2C73.8 65.4 73.5 65.6 73.3 65.6zM71.8 64.6h1v-1.5c0-.3-.2-.5-.5-.5s-.5.2-.5.5V64.6zM73.3 60.6h-2c-.3 0-.5-.2-.5-.5v-2c0-.8.7-1.5 1.5-1.5s1.5.7 1.5 1.5v2C73.8 60.4 73.5 60.6 73.3 60.6zM71.8 59.6h1v-1.5c0-.3-.2-.5-.5-.5s-.5.2-.5.5V59.6zM37.3 55.6h-2c-.3 0-.5-.2-.5-.5v-1c0-.8.7-1.5 1.5-1.5s1.5.7 1.5 1.5v1C37.8 55.4 37.5 55.6 37.3 55.6zM35.8 54.6h1v-.5c0-.3-.2-.5-.5-.5s-.5.2-.5.5V54.6zM41.3 55.6h-2c-.3 0-.5-.2-.5-.5v-1c0-.8.7-1.5 1.5-1.5s1.5.7 1.5 1.5v1C41.8 55.4 41.5 55.6 41.3 55.6zM39.8 54.6h1v-.5c0-.3-.2-.5-.5-.5s-.5.2-.5.5V54.6zM45.3 55.6h-2c-.3 0-.5-.2-.5-.5v-1c0-.8.7-1.5 1.5-1.5s1.5.7 1.5 1.5v1C45.8 55.4 45.5 55.6 45.3 55.6zM43.8 54.6h1v-.5c0-.3-.2-.5-.5-.5s-.5.2-.5.5V54.6zM49.3 55.6h-2c-.3 0-.5-.2-.5-.5v-1c0-.8.7-1.5 1.5-1.5s1.5.7 1.5 1.5v1C49.8 55.4 49.5 55.6 49.3 55.6zM47.8 54.6h1v-.5c0-.3-.2-.5-.5-.5s-.5.2-.5.5V54.6zM53.3 55.6h-2c-.3 0-.5-.2-.5-.5v-1c0-.8.7-1.5 1.5-1.5s1.5.7 1.5 1.5v1C53.8 55.4 53.5 55.6 53.3 55.6zM51.8 54.6h1v-.5c0-.3-.2-.5-.5-.5s-.5.2-.5.5V54.6zM57.3 55.6h-2c-.3 0-.5-.2-.5-.5v-1c0-.8.7-1.5 1.5-1.5s1.5.7 1.5 1.5v1C57.8 55.4 57.5 55.6 57.3 55.6zM55.8 54.6h1v-.5c0-.3-.2-.5-.5-.5s-.5.2-.5.5V54.6zM61.3 55.6h-2c-.3 0-.5-.2-.5-.5v-1c0-.8.7-1.5 1.5-1.5s1.5.7 1.5 1.5v1C61.8 55.4 61.5 55.6 61.3 55.6zM59.8 54.6h1v-.5c0-.3-.2-.5-.5-.5s-.5.2-.5.5V54.6zM65.3 55.6h-2c-.3 0-.5-.2-.5-.5v-1c0-.8.7-1.5 1.5-1.5.8 0 1.5.7 1.5 1.5v1C65.8 55.4 65.5 55.6 65.3 55.6zM63.8 54.6h1v-.5c0-.3-.2-.5-.5-.5-.3 0-.5.2-.5.5V54.6zM30.3 46.6c-.3 0-.5-.2-.5-.5v-1c0-.3.2-.5.5-.5s.5.2.5.5v1C30.8 46.4 30.5 46.6 30.3 46.6zM28.3 47.1c-.3 0-.5-.2-.5-.5v-1.5c0-.3.2-.5.5-.5s.5.2.5.5v1.5C28.8 46.9 28.5 47.1 28.3 47.1zM32.3 47.1c-.3 0-.5-.2-.5-.5v-1.5c0-.3.2-.5.5-.5.3 0 .5.2.5.5v1.5C32.8 46.9 32.5 47.1 32.3 47.1z"/><path fill="#594454" d="M30.3 47.1c-.3 0-.5-.2-.5-.5v-1.5c0-.3.2-.5.5-.5s.5.2.5.5v1.5C30.8 46.9 30.5 47.1 30.3 47.1zM74.3 47.6h-8c-.3 0-.5-.2-.5-.5v-4c0-.3.2-.5.5-.5h8c.3 0 .5.2.5.5v4C74.8 47.4 74.5 47.6 74.3 47.6zM66.8 46.6h7v-3h-7V46.6z"/><path fill="#594454" d="M70.3 47.1c-.3 0-.5-.2-.5-.5v-1.5c0-.3.2-.5.5-.5s.5.2.5.5v1.5C70.8 46.9 70.5 47.1 70.3 47.1zM68.3 47.1c-.3 0-.5-.2-.5-.5v-1.5c0-.3.2-.5.5-.5s.5.2.5.5v1.5C68.8 46.9 68.5 47.1 68.3 47.1zM72.3 47.1c-.3 0-.5-.2-.5-.5v-1.5c0-.3.2-.5.5-.5s.5.2.5.5v1.5C72.8 46.9 72.5 47.1 72.3 47.1zM75.3 67.6h-10c-.3 0-.5-.2-.5-.5v-12c0-.3.2-.5.5-.5h10c.3 0 .5.2.5.5v12C75.8 67.4 75.5 67.6 75.3 67.6zM65.8 66.6h9v-11h-9V66.6z"/><path fill="#594454" d="M67.3,90.6h-6c-0.3,0-0.5-0.2-0.5-0.5v-23c0-0.3,0.2-0.5,0.5-0.5h6c0.3,0,0.5,0.2,0.5,0.5v23    C67.8,90.4,67.5,90.6,67.3,90.6z M61.8,89.6h5v-22h-5V89.6z"/><path fill="#594454" d="M73.3 90.6h-6c-.3 0-.5-.2-.5-.5v-23c0-.3.2-.5.5-.5h6c.3 0 .5.2.5.5v23C73.8 90.4 73.5 90.6 73.3 90.6zM67.8 89.6h5v-22h-5V89.6zM42.3 72.6c-.8 0-1.5-.7-1.5-1.5s.7-1.5 1.5-1.5 1.5.7 1.5 1.5S43.1 72.6 42.3 72.6zM42.3 70.6c-.3 0-.5.2-.5.5s.2.5.5.5.5-.2.5-.5S42.5 70.6 42.3 70.6zM58.3 72.6c-.8 0-1.5-.7-1.5-1.5s.7-1.5 1.5-1.5 1.5.7 1.5 1.5S59.1 72.6 58.3 72.6zM58.3 70.6c-.3 0-.5.2-.5.5s.2.5.5.5.5-.2.5-.5S58.5 70.6 58.3 70.6zM50.3 62.6c-.8 0-1.5-.7-1.5-1.5s.7-1.5 1.5-1.5 1.5.7 1.5 1.5S51.1 62.6 50.3 62.6zM50.3 60.6c-.3 0-.5.2-.5.5s.2.5.5.5.5-.2.5-.5S50.5 60.6 50.3 60.6zM41.3 68.6c-.3 0-.5-.2-.5-.5v-1c0-.3.2-.5.5-.5s.5.2.5.5v1C41.8 68.4 41.5 68.6 41.3 68.6zM43.3 68.6c-.3 0-.5-.2-.5-.5v-1c0-.3.2-.5.5-.5s.5.2.5.5v1C43.8 68.4 43.5 68.6 43.3 68.6zM35.3 68.6c-.3 0-.5-.2-.5-.5v-1c0-.3.2-.5.5-.5s.5.2.5.5v1C35.8 68.4 35.5 68.6 35.3 68.6zM37.3 68.6c-.3 0-.5-.2-.5-.5v-1c0-.3.2-.5.5-.5s.5.2.5.5v1C37.8 68.4 37.5 68.6 37.3 68.6zM41.3 56.6c-.3 0-.5-.2-.5-.5v-1c0-.3.2-.5.5-.5s.5.2.5.5v1C41.8 56.4 41.5 56.6 41.3 56.6zM39.3 56.6c-.3 0-.5-.2-.5-.5v-1c0-.3.2-.5.5-.5s.5.2.5.5v1C39.8 56.4 39.5 56.6 39.3 56.6zM43.3 56.6c-.3 0-.5-.2-.5-.5v-1c0-.3.2-.5.5-.5s.5.2.5.5v1C43.8 56.4 43.5 56.6 43.3 56.6zM37.3 56.6c-.3 0-.5-.2-.5-.5v-1c0-.3.2-.5.5-.5s.5.2.5.5v1C37.8 56.4 37.5 56.6 37.3 56.6zM49.3 56.6c-.3 0-.5-.2-.5-.5v-1c0-.3.2-.5.5-.5s.5.2.5.5v1C49.8 56.4 49.5 56.6 49.3 56.6zM47.3 56.6c-.3 0-.5-.2-.5-.5v-1c0-.3.2-.5.5-.5s.5.2.5.5v1C47.8 56.4 47.5 56.6 47.3 56.6zM51.3 56.6c-.3 0-.5-.2-.5-.5v-1c0-.3.2-.5.5-.5s.5.2.5.5v1C51.8 56.4 51.5 56.6 51.3 56.6zM45.3 56.6c-.3 0-.5-.2-.5-.5v-1c0-.3.2-.5.5-.5s.5.2.5.5v1C45.8 56.4 45.5 56.6 45.3 56.6zM57.3 56.6c-.3 0-.5-.2-.5-.5v-1c0-.3.2-.5.5-.5s.5.2.5.5v1C57.8 56.4 57.5 56.6 57.3 56.6zM55.3 56.6c-.3 0-.5-.2-.5-.5v-1c0-.3.2-.5.5-.5s.5.2.5.5v1C55.8 56.4 55.5 56.6 55.3 56.6zM59.3 56.6c-.3 0-.5-.2-.5-.5v-1c0-.3.2-.5.5-.5s.5.2.5.5v1C59.8 56.4 59.5 56.6 59.3 56.6zM53.3 56.6c-.3 0-.5-.2-.5-.5v-1c0-.3.2-.5.5-.5s.5.2.5.5v1C53.8 56.4 53.5 56.6 53.3 56.6zM63.3 56.6c-.3 0-.5-.2-.5-.5v-1c0-.3.2-.5.5-.5s.5.2.5.5v1C63.8 56.4 63.5 56.6 63.3 56.6zM61.3 56.6c-.3 0-.5-.2-.5-.5v-1c0-.3.2-.5.5-.5s.5.2.5.5v1C61.8 56.4 61.5 56.6 61.3 56.6zM45.3 68.6c-.3 0-.5-.2-.5-.5v-1c0-.3.2-.5.5-.5s.5.2.5.5v1C45.8 68.4 45.5 68.6 45.3 68.6zM47.3 68.6c-.3 0-.5-.2-.5-.5v-1c0-.3.2-.5.5-.5s.5.2.5.5v1C47.8 68.4 47.5 68.6 47.3 68.6zM49.3 68.6c-.3 0-.5-.2-.5-.5v-1c0-.3.2-.5.5-.5s.5.2.5.5v1C49.8 68.4 49.5 68.6 49.3 68.6zM51.3 68.6c-.3 0-.5-.2-.5-.5v-1c0-.3.2-.5.5-.5s.5.2.5.5v1C51.8 68.4 51.5 68.6 51.3 68.6zM53.3 68.6c-.3 0-.5-.2-.5-.5v-1c0-.3.2-.5.5-.5s.5.2.5.5v1C53.8 68.4 53.5 68.6 53.3 68.6zM55.3 68.6c-.3 0-.5-.2-.5-.5v-1c0-.3.2-.5.5-.5s.5.2.5.5v1C55.8 68.4 55.5 68.6 55.3 68.6zM57.3 68.6c-.3 0-.5-.2-.5-.5v-1c0-.3.2-.5.5-.5s.5.2.5.5v1C57.8 68.4 57.5 68.6 57.3 68.6zM59.3 68.6c-.3 0-.5-.2-.5-.5v-1c0-.3.2-.5.5-.5s.5.2.5.5v1C59.8 68.4 59.5 68.6 59.3 68.6zM63.3 68.6c-.3 0-.5-.2-.5-.5v-1c0-.3.2-.5.5-.5s.5.2.5.5v1C63.8 68.4 63.5 68.6 63.3 68.6zM65.3 68.6c-.3 0-.5-.2-.5-.5v-1c0-.3.2-.5.5-.5s.5.2.5.5v1C65.8 68.4 65.5 68.6 65.3 68.6zM32.3 35.9c-.3 0-.5-.2-.5-.5v-3.6c0-.7-.4-1.4-1-1.8l-.5-.3-.5.3c-.6.4-1 1.1-1 1.8v3.6c0 .3-.2.5-.5.5s-.5-.2-.5-.5v-3.6c0-1.1.5-2.1 1.5-2.7l.8-.5c.2-.1.4-.1.5 0l.8.5c.9.6 1.5 1.6 1.5 2.7v3.6C32.8 35.7 32.5 35.9 32.3 35.9z"/><path fill="#594454" d="M30.3 29.6c-.3 0-.5-.2-.5-.5v-2c0-.3.2-.5.5-.5s.5.2.5.5v2C30.8 29.4 30.5 29.6 30.3 29.6zM30.3 35.6c-.3 0-.5-.2-.5-.5v-1c0-.3.2-.5.5-.5s.5.2.5.5v1C30.8 35.4 30.5 35.6 30.3 35.6zM29.3 38.6c-.3 0-.5-.2-.5-.5v-.5c0-.3.2-.5.5-.5s.5.2.5.5v.5C29.8 38.4 29.5 38.6 29.3 38.6zM31.3 38.6c-.3 0-.5-.2-.5-.5v-.5c0-.3.2-.5.5-.5s.5.2.5.5v.5C31.8 38.4 31.5 38.6 31.3 38.6zM32.3 32.6h-3.5c-.3 0-.5-.2-.5-.5s.2-.5.5-.5h3.5c.3 0 .5.2.5.5S32.5 32.6 32.3 32.6zM72.3 43.6h-4c-.3 0-.5-.2-.5-.5v-4.5c0-.3.2-.5.5-.5h4c.3 0 .5.2.5.5v4.5C72.8 43.4 72.5 43.6 72.3 43.6zM68.8 42.6h3v-3.5h-3V42.6z"/><path fill="#594454" d="M73.3,39.1h-6c-0.3,0-0.5-0.2-0.5-0.5v-3c0-0.3,0.2-0.5,0.5-0.5h6c0.3,0,0.5,0.2,0.5,0.5v3    C73.8,38.9,73.5,39.1,73.3,39.1z M67.8,38.1h5v-2h-5V38.1z"/><path fill="#594454" d="M72.3,35.9c-0.3,0-0.5-0.2-0.5-0.5v-3.6c0-0.7-0.4-1.4-1-1.8l-0.5-0.3l-0.5,0.3c-0.6,0.4-1,1.1-1,1.8v3.6    c0,0.3-0.2,0.5-0.5,0.5s-0.5-0.2-0.5-0.5v-3.6c0-1.1,0.5-2.1,1.5-2.7l0.8-0.5c0.2-0.1,0.4-0.1,0.5,0l0.8,0.5    c0.9,0.6,1.5,1.6,1.5,2.7v3.6C72.8,35.7,72.5,35.9,72.3,35.9z"/><path fill="#594454" d="M70.3 29.6c-.3 0-.5-.2-.5-.5v-2c0-.3.2-.5.5-.5s.5.2.5.5v2C70.8 29.4 70.5 29.6 70.3 29.6zM70.3 35.6c-.3 0-.5-.2-.5-.5v-1c0-.3.2-.5.5-.5s.5.2.5.5v1C70.8 35.4 70.5 35.6 70.3 35.6zM69.3 38.6c-.3 0-.5-.2-.5-.5v-.5c0-.3.2-.5.5-.5s.5.2.5.5v.5C69.8 38.4 69.5 38.6 69.3 38.6zM71.3 38.6c-.3 0-.5-.2-.5-.5v-.5c0-.3.2-.5.5-.5s.5.2.5.5v.5C71.8 38.4 71.5 38.6 71.3 38.6zM72.3 32.6h-3.5c-.3 0-.5-.2-.5-.5s.2-.5.5-.5h3.5c.3 0 .5.2.5.5S72.5 32.6 72.3 32.6z"/><path fill="#726571" d="M55.3 59.1c0 0-2.1.8-2.1 3 0 .5 0 1.2 0 2 0-2.3 2.1-3 2.1-3s1.9.7 1.9 3c0-.8 0-1.5 0-2C57.3 59.8 55.3 59.1 55.3 59.1zM61.3 59.1c0 0-2.1.8-2.1 3 0 .5 0 1.2 0 2 0-2.3 2.1-3 2.1-3s1.9.7 1.9 3c0-.8 0-1.5 0-2C63.3 59.8 61.3 59.1 61.3 59.1z"/><path fill="#594454" d="M57.3 68.1c-.3 0-.5-.2-.5-.5v-5.5c0-1.5-1-2.2-1.5-2.5-.4.2-1.5.9-1.5 2.5v5.5c0 .3-.2.5-.5.5s-.5-.2-.5-.5v-5.5c0-2.6 2.3-3.4 2.4-3.5.1 0 .2 0 .3 0 .1 0 2.3.9 2.3 3.5v5.5C57.8 67.9 57.5 68.1 57.3 68.1zM63.3 68.1c-.3 0-.5-.2-.5-.5v-5.5c0-1.5-1-2.2-1.5-2.5-.4.2-1.5.9-1.5 2.5v5.5c0 .3-.2.5-.5.5s-.5-.2-.5-.5v-5.5c0-2.6 2.3-3.4 2.4-3.5.1 0 .2 0 .3 0 .1 0 2.3.9 2.3 3.5v5.5C63.8 67.9 63.5 68.1 63.3 68.1z"/><path fill="#726571" d="M36.3 80.1c-.6 0-1 .4-1 1v1.5c0-.6.4-1 1-1s1 .4 1 1v-1.5C37.3 80.5 36.8 80.1 36.3 80.1zM36.3 85.1c-.6 0-1 .4-1 1v1.5c0-.6.4-1 1-1s1 .4 1 1v-1.5C37.3 85.5 36.8 85.1 36.3 85.1zM64.3 70.1c-.6 0-1 .4-1 1v1.5c0-.6.4-1 1-1s1 .4 1 1v-1.5C65.3 70.5 64.8 70.1 64.3 70.1zM64.3 75.1c-.6 0-1 .4-1 1v1.5c0-.6.4-1 1-1s1 .4 1 1v-1.5C65.3 75.5 64.8 75.1 64.3 75.1zM64.3 80.1c-.6 0-1 .4-1 1v1.5c0-.6.4-1 1-1s1 .4 1 1v-1.5C65.3 80.5 64.8 80.1 64.3 80.1zM64.3 85.1c-.6 0-1 .4-1 1v1.5c0-.6.4-1 1-1s1 .4 1 1v-1.5C65.3 85.5 64.8 85.1 64.3 85.1z"/><path fill="#594454" d="M37.3 83.6h-2c-.3 0-.5-.2-.5-.5v-2c0-.8.7-1.5 1.5-1.5s1.5.7 1.5 1.5v2C37.8 83.4 37.5 83.6 37.3 83.6zM35.8 82.6h1v-1.5c0-.3-.2-.5-.5-.5s-.5.2-.5.5V82.6zM37.3 88.6h-2c-.3 0-.5-.2-.5-.5v-2c0-.8.7-1.5 1.5-1.5s1.5.7 1.5 1.5v2C37.8 88.4 37.5 88.6 37.3 88.6zM35.8 87.6h1v-1.5c0-.3-.2-.5-.5-.5s-.5.2-.5.5V87.6zM65.3 73.6h-2c-.3 0-.5-.2-.5-.5v-2c0-.8.7-1.5 1.5-1.5.8 0 1.5.7 1.5 1.5v2C65.8 73.4 65.5 73.6 65.3 73.6zM63.8 72.6h1v-1.5c0-.3-.2-.5-.5-.5-.3 0-.5.2-.5.5V72.6zM65.3 78.6h-2c-.3 0-.5-.2-.5-.5v-2c0-.8.7-1.5 1.5-1.5.8 0 1.5.7 1.5 1.5v2C65.8 78.4 65.5 78.6 65.3 78.6zM63.8 77.6h1v-1.5c0-.3-.2-.5-.5-.5-.3 0-.5.2-.5.5V77.6zM65.3 88.6h-2c-.3 0-.5-.2-.5-.5v-2c0-.8.7-1.5 1.5-1.5.8 0 1.5.7 1.5 1.5v2C65.8 88.4 65.5 88.6 65.3 88.6zM63.8 87.6h1v-1.5c0-.3-.2-.5-.5-.5-.3 0-.5.2-.5.5V87.6zM65.3 83.6h-2c-.3 0-.5-.2-.5-.5v-2c0-.8.7-1.5 1.5-1.5.8 0 1.5.7 1.5 1.5v2C65.8 83.4 65.5 83.6 65.3 83.6zM63.8 82.6h1v-1.5c0-.3-.2-.5-.5-.5-.3 0-.5.2-.5.5V82.6z"/></svg>